<?xml version="1.0" encoding="UTF-8"?>
<svg id="Layer_1" data-name="Layer 1" xmlns="http://www.w3.org/2000/svg" viewBox="0 0 153.54 153.54">
  <defs>
    <style>
      .cls-1 {
        fill: #fff;
      }

      .cls-2 {
        fill: #904399;
      }
    </style>
  </defs>
  <g>
    <path class="cls-1" d="m153.54,76.77C153.54,34.37,119.17,0,76.77,0c-19.8,0-37.84,7.5-51.46,19.8l13.17,23.1c9.37-10.58,23.04-17.26,38.29-17.26,27.1,0,49.26,21.09,51,47.75h-15.46c9.13,15.78,18.27,31.55,27.4,47.33,0,0,0,0,0,0h0c8.71-12.45,13.82-27.6,13.82-43.94Z"/>
    <path class="cls-1" d="m76.77,127.89c-27.58,0-50.05-21.84-51.08-49.18h15.04c-8.88-15.34-17.77-30.68-26.65-46.03-.09.33-.18.67-.27,1l-.27-.47C5,45.6,0,60.6,0,76.77c0,42.4,34.37,76.77,76.77,76.77,19.63,0,37.54-7.37,51.12-19.5l-13.14-23.04c-9.36,10.38-22.9,16.9-37.98,16.9Z"/>
  </g>
  <path class="cls-2" d="m90.35,83.41l-8.65-8.65v-25.85c0-2.81-2.28-5.1-5.1-5.1h0c-2.81,0-5.1,2.28-5.1,5.1v27.9c0,.22.02.44.05.65.13,1.1.61,2.18,1.46,3.02l10.14,10.14c1.99,1.99,5.22,1.99,7.21,0s1.99-5.22,0-7.21Z"/>
</svg>
