<?xml version="1.0" encoding="UTF-8"?>
<svg id="Layer_1" data-name="Layer 1" xmlns="http://www.w3.org/2000/svg" viewBox="0 0 174.02 61.69">
  <defs>
    <style>
      .cls-1 {
        fill: #904399;
      }

      .cls-2 {
        fill: #2d2d2d;
      }
    </style>
  </defs>
  <g>
    <g>
      <path class="cls-2" d="m61.69,30.85C61.69,13.81,47.88,0,30.85,0c-7.95,0-15.21,3.01-20.68,7.96l5.29,9.28c3.76-4.25,9.26-6.93,15.38-6.93,10.89,0,19.79,8.47,20.49,19.19h-6.21c3.67,6.34,7.34,12.68,11.01,19.02,0,0,0,0,0,0h0c3.5-5,5.55-11.09,5.55-17.66Z"/>
      <path class="cls-2" d="m30.85,51.39c-11.08,0-20.11-8.78-20.52-19.76h6.04c-3.57-6.16-7.14-12.33-10.71-18.49-.04.13-.07.27-.11.4l-.11-.19C2.01,18.32,0,24.35,0,30.85c0,17.04,13.81,30.85,30.85,30.85,7.89,0,15.09-2.96,20.54-7.84l-5.28-9.26c-3.76,4.17-9.2,6.79-15.26,6.79Z"/>
    </g>
    <path class="cls-1" d="m36.3,33.52l-3.48-3.48v-10.39c0-1.13-.92-2.05-2.05-2.05h0c-1.13,0-2.05.92-2.05,2.05v11.21c0,.09,0,.18.02.26.05.44.24.87.59,1.21l4.07,4.07c.8.8,2.1.8,2.9,0s.8-2.1,0-2.9Z"/>
  </g>
  <g>
    <path class="cls-2" d="m75.41,22.13v4.82h6.58v2.84h-6.58v5h7.37v2.97h-11.08v-18.59h11.08v2.95h-7.37Z"/>
    <path class="cls-2" d="m90.44,21.13c-.44.39-.66,1.06-.66,2.03v.03h2.95v3.13h-2.95v11.45h-3.71v-11.45h-1.87v-3.13h1.87v-.34c0-1.74.5-3.08,1.49-4.01.99-.94,2.46-1.41,4.41-1.41.33,0,.59,0,.76.03v3.21c-1.09-.07-1.85.09-2.29.47Z"/>
    <path class="cls-2" d="m99.86,21.13c-.44.39-.66,1.06-.66,2.03v.03h2.95v3.13h-2.95v11.45h-3.71v-11.45h-1.87v-3.13h1.87v-.34c0-1.74.5-3.08,1.49-4.01.99-.94,2.46-1.41,4.41-1.41.33,0,.59,0,.76.03v3.21c-1.09-.07-1.85.09-2.29.47Z"/>
    <path class="cls-2" d="m104.58,17.54c.42-.38.97-.57,1.66-.57s1.24.19,1.66.57c.42.38.63.86.63,1.46s-.21,1.06-.63,1.44c-.42.38-.97.57-1.66.57s-1.24-.19-1.66-.57-.63-.86-.63-1.44.21-1.08.63-1.46Zm3.5,5.65v14.58h-3.71v-14.58h3.71Z"/>
    <path class="cls-1" d="m123.5,35.31c-.47.8-1.18,1.44-2.11,1.92-.93.48-2.06.72-3.4.72s-2.49-.22-3.53-.67c-1.04-.45-1.86-1.09-2.49-1.94-.62-.84-.98-1.83-1.07-2.95h3.95c.09.75.39,1.38.91,1.88.52.5,1.21.75,2.07.75.77,0,1.36-.21,1.78-.62.41-.41.62-.94.62-1.59,0-.58-.17-1.06-.5-1.43-.33-.38-.75-.68-1.26-.91-.51-.23-1.21-.49-2.11-.79-1.16-.39-2.11-.77-2.84-1.15s-1.37-.93-1.88-1.65c-.52-.72-.78-1.66-.78-2.82,0-1.6.58-2.86,1.72-3.78s2.67-1.38,4.57-1.38,3.53.47,4.7,1.42,1.83,2.21,1.99,3.79h-4c-.11-.67-.39-1.22-.84-1.65-.46-.43-1.08-.65-1.87-.65-.68,0-1.24.18-1.66.54-.42.36-.63.88-.63,1.57,0,.54.16,1,.49,1.36.32.36.74.65,1.24.88.5.23,1.18.48,2.04.76,1.19.42,2.16.82,2.91,1.18.75.37,1.38.92,1.91,1.66.53.74.79,1.7.79,2.9,0,.95-.24,1.82-.71,2.62Z"/>
    <path class="cls-1" d="m129.45,23.19l3.98,9.9,3.69-9.9h4.08l-8.92,21.53h-4.11l3.29-7.37-6.13-14.16h4.13Z"/>
    <path class="cls-1" d="m155.65,24.63c1,1.11,1.5,2.66,1.5,4.66v8.48h-3.69v-8.06c0-1.16-.3-2.06-.89-2.7s-1.41-.96-2.45-.96-1.9.34-2.53,1.03c-.63.68-.95,1.67-.95,2.95v7.74h-3.71v-14.58h3.71v2.92c.39-.98,1.02-1.75,1.91-2.3.89-.55,1.91-.83,3.07-.83,1.69,0,3.03.55,4.03,1.66Z"/>
    <path class="cls-1" d="m171.67,24.53c1.25,1.02,2.04,2.4,2.36,4.16h-3.92c-.16-.77-.52-1.38-1.08-1.83s-1.27-.67-2.13-.67c-.98,0-1.8.36-2.46,1.09-.66.73-.99,1.79-.99,3.2s.33,2.47.99,3.2c.66.73,1.48,1.09,2.46,1.09.86,0,1.57-.22,2.13-.67.56-.45.92-1.06,1.08-1.83h3.92c-.32,1.75-1.1,3.14-2.36,4.16-1.25,1.02-2.82,1.53-4.7,1.53-1.42,0-2.69-.3-3.79-.91s-1.97-1.47-2.58-2.59-.92-2.45-.92-3.98.31-2.86.92-3.99c.61-1.13,1.47-2,2.58-2.59s2.37-.9,3.79-.9c1.88,0,3.44.51,4.7,1.53Z"/>
  </g>
</svg>